<?xml version="1.0" encoding="UTF-8"?>
<svg version="1.1" xmlns="http://www.w3.org/2000/svg" width="120" height="159">
<path d="M0 0 C1.29421875 -0.00773438 2.5884375 -0.01546875 3.921875 -0.0234375 C18.21230599 0.00508631 33.46820125 0.22121269 44.78125 10.140625 C50.89987519 16.725925 53.98731329 23.32238604 54.625 32.25 C53.635 32.91 52.645 33.57 51.625 34.25 C51.90214844 34.78109375 52.17929688 35.3121875 52.46484375 35.859375 C53.00818359 36.91898438 53.00818359 36.91898438 53.5625 38 C53.92214844 38.69609375 54.28179687 39.3921875 54.65234375 40.109375 C58.0573896 47.60321084 56.83165603 54.52944494 54.28125 62.05078125 C53.39565687 65.0185725 53.63396946 67.70245919 53.6953125 70.796875 C53.71388686 72.19791213 53.73210343 73.59895405 53.75 75 C53.76675781 75.6909375 53.78351563 76.381875 53.80078125 77.09375 C53.8455894 81.86133674 53.13025755 85.72237494 51.625 90.25 C53.275 90.58 54.925 90.91 56.625 91.25 C59.8685685 107.43888208 61.78196281 129.28460829 56.625 145.25 C53.74423719 147.60698776 53.09825433 147.75464366 49.625 148.25 C48.63113281 148.50523437 47.63726562 148.76046875 46.61328125 149.0234375 C32.50285516 152.53093224 17.94537382 152.41927315 3.48876953 152.38037109 C1.12656239 152.37500355 -1.23545473 152.38036217 -3.59765625 152.38671875 C-30.51682429 152.40262853 -30.51682429 152.40262853 -43.1875 149.3125 C-43.94869141 149.14298828 -44.70988281 148.97347656 -45.49414062 148.79882812 C-48.94085699 147.99875186 -51.40316209 147.23122528 -54.375 145.25 C-58.39997678 130.74286444 -60.22647826 103.95295652 -53.375 90.25 C-52.055 90.25 -50.735 90.25 -49.375 90.25 C-49.66375 89.21875 -49.9525 88.1875 -50.25 87.125 C-55.10902614 67.16828549 -58.19183357 34.45061263 -47.0234375 16.01953125 C-41.57923462 8.35576874 -34.80657429 3.65961389 -25.58349609 1.63818359 C-17.01739437 0.2672246 -8.66607335 -0.05148162 0 0 Z " fill="#3D434E" transform="translate(58.375,2.75)"/>
<path d="M0 0 C0.94875 0.515625 1.8975 1.03125 2.875 1.5625 C5.29073656 3.19667473 5.78657946 4.41136951 7 7 C8.32392972 8.01241685 9.65599167 9.01439389 11 10 C11 10.66 11 11.32 11 12 C11.66 12 12.32 12 13 12 C16.03901852 17.82478551 16.3540919 22.48208608 16 29 C15.01 29.495 15.01 29.495 14 30 C13.91363281 29.39414062 13.82726562 28.78828125 13.73828125 28.1640625 C12.16944457 18.80861444 9.09716473 10.52323475 1.37011719 4.58398438 C-7.49339977 -1.33963512 -16.76983605 -1.54595811 -27.125 -1.3125 C-28.4635277 -1.30097776 -29.80207161 -1.2912018 -31.140625 -1.28320312 C-36.94895477 -1.77230029 -36.94895477 -1.77230029 -42 0 C-42.29364758 4.8228827 -42.31430915 9.64877136 -42.35009766 14.47973633 C-42.36653745 16.10227929 -42.39366626 17.72475351 -42.43212891 19.34692383 C-42.68304573 29.98906982 -42.65563102 38.82983359 -35.05444336 47.12255859 C-29.72183897 52.3066283 -24.06529587 55.04809772 -16.625 55.375 C-5.75046282 54.87137649 0.4446297 50.66789709 8 43 C8.33 43.99 8.66 44.98 9 46 C7.63671875 48.04296875 7.63671875 48.04296875 5.6875 50.1875 C5.05199219 50.90292969 4.41648437 51.61835937 3.76171875 52.35546875 C2 54 2 54 0 54 C-0.18175781 54.99257812 -0.36351563 55.98515625 -0.55078125 57.0078125 C-8.01390743 97.50041643 -8.01390743 97.50041643 -17 107 C-21.45658796 109.67024969 -24.76908373 110.38370667 -29.9375 110.3984375 C-31.24460938 110.40230469 -32.55171875 110.40617187 -33.8984375 110.41015625 C-34.57229492 110.40387207 -35.24615234 110.39758789 -35.94042969 110.39111328 C-37.9948163 110.37504056 -40.0472362 110.39099826 -42.1015625 110.41015625 C-44.06222656 110.40435547 -44.06222656 110.40435547 -46.0625 110.3984375 C-47.24972656 110.39505371 -48.43695313 110.39166992 -49.66015625 110.38818359 C-55.28021788 109.73497468 -59.18441752 107.44747737 -62.6875 103.0625 C-65.9183099 98.68848044 -67.25358694 94.58356916 -68.296875 89.28515625 C-68.88022971 86.55959343 -69.61374246 84.06098517 -70.47265625 81.41796875 C-72.2934615 75.43364836 -73.04397582 69.45853071 -73.6875 63.25 C-73.87638794 61.45224121 -73.87638794 61.45224121 -74.0690918 59.61816406 C-74.95763982 50.31758696 -75.28777662 41.08508723 -75.3125 31.75 C-75.31789795 30.49606445 -75.3232959 29.24212891 -75.32885742 27.95019531 C-75.2792316 21.60326851 -74.86631209 16.06897043 -73 10 C-72.80019531 9.16210938 -72.60039063 8.32421875 -72.39453125 7.4609375 C-71.04191828 2.61331788 -69.31871257 -0.81135988 -65.22265625 -3.84765625 C-50.43252622 -11.51564985 -12.99029471 -10.81950276 0 0 Z " fill="#393937" transform="translate(98,26)"/>
<path d="M0 0 C1.29421875 -0.00773438 2.5884375 -0.01546875 3.921875 -0.0234375 C18.21230599 0.00508631 33.46820125 0.22121269 44.78125 10.140625 C50.89987519 16.725925 53.98731329 23.32238604 54.625 32.25 C53.14 32.745 53.14 32.745 51.625 33.25 C51.398125 32.13625 51.17125 31.0225 50.9375 29.875 C48.9443789 21.9307868 45.4848562 14.32564326 38.390625 9.8359375 C25.34343581 3.55545823 11.40347092 4.06840527 -2.75 4 C-3.4453183 3.9945517 -4.1406366 3.98910339 -4.85702515 3.98348999 C-19.54694152 3.74154179 -19.54694152 3.74154179 -33.1875 8.5625 C-33.87457031 8.95050781 -34.56164062 9.33851562 -35.26953125 9.73828125 C-39.34233426 12.6625387 -42.00310497 14.78199328 -43.265625 19.765625 C-43.38421875 20.99796875 -43.5028125 22.2303125 -43.625 23.5 C-44.31944444 30.19444444 -44.31944444 30.19444444 -45.375 31.25 C-47.30062378 39.13302234 -47.88708267 47.17368423 -48.375 55.25 C-47.715 55.58 -47.055 55.91 -46.375 56.25 C-46.48199219 57.49394531 -46.58898438 58.73789062 -46.69921875 60.01953125 C-47.6532884 72.29029972 -47.6532884 72.29029972 -44.96875 84.21875 C-44.375 86.25 -44.375 86.25 -45.375 89.25 C-44.715 89.58 -44.055 89.91 -43.375 90.25 C-42.70870063 93.64812679 -42.34160353 96.72678871 -42.5625 100.1875 C-42.33568585 103.89213119 -41.08512739 106.14707139 -39.25 109.3203125 C-38.375 111.25 -38.375 111.25 -38.375 115.25 C-39.035 115.25 -39.695 115.25 -40.375 115.25 C-40.375 116.57 -40.375 117.89 -40.375 119.25 C-39.385 119.25 -38.395 119.25 -37.375 119.25 C-35.34064469 122.97965139 -34.375 124.91905042 -34.375 129.25 C-33.715 129.25 -33.055 129.25 -32.375 129.25 C-31.7253125 130.36375 -31.7253125 130.36375 -31.0625 131.5 C-27.88863171 136.6722298 -23.7804063 138.84904801 -18.17089844 140.65283203 C-12.51378422 141.86111891 -6.80607793 141.39667567 -1.0625 141.125 C0.17951172 141.08890625 1.42152344 141.0528125 2.70117188 141.015625 C12.11124129 140.64060388 23.74219788 139.93295037 31.625 134.25 C35.52298869 129.59677601 38.78053543 125.36962639 39.625 119.25 C40.945 118.92 42.265 118.59 43.625 118.25 C43.72683594 117.1465625 43.82867187 116.043125 43.93359375 114.90625 C44.58807726 109.67038194 46.11430026 104.7725588 47.6875 99.75 C47.96916016 98.8321875 48.25082031 97.914375 48.54101562 96.96875 C49.2298013 94.72727797 49.92455305 92.48784969 50.625 90.25 C52.29111905 90.207279 53.95882885 90.20936168 55.625 90.25 C60.59465646 95.21965646 58.85822163 111.07781056 58.875 117.6875 C58.72760021 138.74058016 58.72760021 138.74058016 56.625 145.25 C53.74423719 147.60698776 53.09825433 147.75464366 49.625 148.25 C48.63113281 148.50523437 47.63726562 148.76046875 46.61328125 149.0234375 C32.50285516 152.53093224 17.94537382 152.41927315 3.48876953 152.38037109 C1.12656239 152.37500355 -1.23545473 152.38036217 -3.59765625 152.38671875 C-30.51682429 152.40262853 -30.51682429 152.40262853 -43.1875 149.3125 C-43.94869141 149.14298828 -44.70988281 148.97347656 -45.49414062 148.79882812 C-48.94085699 147.99875186 -51.40316209 147.23122528 -54.375 145.25 C-58.39997678 130.74286444 -60.22647826 103.95295652 -53.375 90.25 C-52.055 90.25 -50.735 90.25 -49.375 90.25 C-49.66375 89.21875 -49.9525 88.1875 -50.25 87.125 C-55.10902614 67.16828549 -58.19183357 34.45061263 -47.0234375 16.01953125 C-41.57923462 8.35576874 -34.80657429 3.65961389 -25.58349609 1.63818359 C-17.01739437 0.2672246 -8.66607335 -0.05148162 0 0 Z " fill="#586270" transform="translate(58.375,2.75)"/>
<path d="M0 0 C1.28197266 -0.02449219 2.56394531 -0.04898437 3.88476562 -0.07421875 C14.87464122 -0.10784407 24.16519087 1.612178 32.33984375 9.3671875 C35.20801205 12.71013195 37.18193975 16.41210265 39.0625 20.375 C39.5575 21.365 39.5575 21.365 40.0625 22.375 C41.05069003 32.61329668 39.31564126 40.73518567 32.75 48.75 C26.74356154 55.10222489 19.4607319 58.29306084 10.6875 58.75 C2.94165527 58.52643572 -3.54228539 54.79099637 -9.0234375 49.46655273 C-16.57274555 41.21720043 -16.64755811 32.36108103 -16.42456055 21.77685547 C-16.3745259 19.35202387 -16.36303488 16.9292111 -16.35742188 14.50390625 C-16.3433567 12.96091576 -16.32715984 11.41794289 -16.30859375 9.875 C-16.30323105 9.15111084 -16.29786835 8.42722168 -16.29234314 7.68139648 C-16.05020406 -2.44039817 -8.13628075 0.00796503 0 0 Z " fill="#B9B9BD" transform="translate(70.9375,23.625)"/>
<path d="M0 0 C0.33 0 0.66 0 1 0 C1.495 2.97 1.495 2.97 2 6 C2.33 4.02 2.66 2.04 3 0 C3.33 0 3.66 0 4 0 C4.32311642 5.81609554 3.52657318 10.28505964 1.65625 15.80078125 C0.82284828 18.59366915 0.98355916 20.85771573 1.31640625 23.73828125 C2.28524488 37.80950892 -2.71733071 50.74724172 -7.06030273 63.93237305 C-7.88297827 66.6179844 -8.51079434 69.23706689 -9 72 C-6.36 72 -3.72 72 -1 72 C-1 72.33 -1 72.66 -1 73 C-4.96 73 -8.92 73 -13 73 C-13 74.65 -13 76.3 -13 78 C-14.35546875 80.5703125 -14.35546875 80.5703125 -16.1875 83.125 C-16.77917969 83.97320312 -17.37085937 84.82140625 -17.98046875 85.6953125 C-21.21027519 89.38116511 -24.89161339 91.14836908 -29.5 92.625 C-30.2321875 92.86476563 -30.964375 93.10453125 -31.71875 93.3515625 C-38.80528565 95.36588599 -45.92687806 95.45243013 -53.25 95.75 C-54.53519531 95.81832031 -55.82039063 95.88664062 -57.14453125 95.95703125 C-65.85458122 96.30543325 -73.24193175 95.93979485 -80.5 90.75 C-83.52023266 87.42774407 -84 85.44923818 -84 81 C-83.01 80.01 -83.01 80.01 -82 79 C-81.75712511 76.55987051 -81.75712511 76.55987051 -81.875 73.875 C-81.89304687 72.96492188 -81.91109375 72.05484375 -81.9296875 71.1171875 C-81.95289063 70.41851562 -81.97609375 69.71984375 -82 69 C-81.01 69 -80.02 69 -79 69 C-78.79375 69.99 -78.5875 70.98 -78.375 72 C-77.03379039 76.67045332 -74.46020336 80.60228338 -71 84 C-65.29301969 86.83721367 -59.43377778 86.37209387 -53.18994141 86.37060547 C-51.13749847 86.3749734 -49.0872187 86.41131786 -47.03515625 86.44921875 C-37.28262751 86.52725717 -37.28262751 86.52725717 -29 82 C-25.7661778 77.32892349 -23.80726317 72.37660793 -22 67 C-21.6803125 66.09894531 -21.360625 65.19789062 -21.03125 64.26953125 C-18.51242886 56.7416908 -17.09745468 49.29133019 -16.0390625 41.44799805 C-15.93078125 40.66980713 -15.8225 39.89161621 -15.7109375 39.08984375 C-15.62118652 38.39753662 -15.53143555 37.70522949 -15.43896484 36.99194336 C-14.34754862 32.03929322 -11.91068349 30.05224077 -8 27 C-5.31562562 24.02801408 -4.69212042 21.89317734 -4 18 C-3.51248008 16.57899023 -3.01103709 15.16272274 -2.5 13.75 C-0.9175102 9.15691984 -0.38369658 4.83457687 0 0 Z " fill="#444B56" transform="translate(111,49)"/>
<path d="M0 0 C1.29421875 -0.00773438 2.5884375 -0.01546875 3.921875 -0.0234375 C18.21230599 0.00508631 33.46820125 0.22121269 44.78125 10.140625 C50.89987519 16.725925 53.98731329 23.32238604 54.625 32.25 C53.14 32.745 53.14 32.745 51.625 33.25 C51.398125 32.13625 51.17125 31.0225 50.9375 29.875 C48.9443789 21.9307868 45.4848562 14.32564326 38.390625 9.8359375 C25.34343581 3.55545823 11.40347092 4.06840527 -2.75 4 C-3.4453183 3.9945517 -4.1406366 3.98910339 -4.85702515 3.98348999 C-19.54694152 3.74154179 -19.54694152 3.74154179 -33.1875 8.5625 C-33.87457031 8.95050781 -34.56164062 9.33851562 -35.26953125 9.73828125 C-39.34233426 12.6625387 -42.00310497 14.78199328 -43.265625 19.765625 C-43.38421875 20.99796875 -43.5028125 22.2303125 -43.625 23.5 C-44.31944444 30.19444444 -44.31944444 30.19444444 -45.375 31.25 C-47.30062378 39.13302234 -47.88708267 47.17368423 -48.375 55.25 C-47.715 55.58 -47.055 55.91 -46.375 56.25 C-46.48199219 57.49394531 -46.58898438 58.73789062 -46.69921875 60.01953125 C-47.6532884 72.29029972 -47.6532884 72.29029972 -44.96875 84.21875 C-44.375 86.25 -44.375 86.25 -45.375 89.25 C-44.715 89.58 -44.055 89.91 -43.375 90.25 C-42.70870063 93.64812679 -42.34160353 96.72678871 -42.5625 100.1875 C-42.33568585 103.89213119 -41.08512739 106.14707139 -39.25 109.3203125 C-38.375 111.25 -38.375 111.25 -38.375 115.25 C-39.035 115.25 -39.695 115.25 -40.375 115.25 C-40.375 116.9 -40.375 118.55 -40.375 120.25 C-41.6125 120.37375 -42.85 120.4975 -44.125 120.625 C-47.27765221 120.94026522 -49.85088029 121.25727392 -52.375 123.25 C-53.08288435 126.58975372 -53.08288435 126.58975372 -53.125 130.375 C-53.18171875 131.65632812 -53.2384375 132.93765625 -53.296875 134.2578125 C-53.33554687 135.73894531 -53.33554687 135.73894531 -53.375 137.25 C-54.035 137.25 -54.695 137.25 -55.375 137.25 C-56.4645574 131.0525975 -56.56692324 124.97145363 -56.5625 118.6875 C-56.56241943 117.62644043 -56.56233887 116.56538086 -56.56225586 115.47216797 C-56.42375591 96.34751182 -56.42375591 96.34751182 -53.375 90.25 C-52.055 90.25 -50.735 90.25 -49.375 90.25 C-49.66375 89.21875 -49.9525 88.1875 -50.25 87.125 C-55.10902614 67.16828549 -58.19183357 34.45061263 -47.0234375 16.01953125 C-41.57923462 8.35576874 -34.80657429 3.65961389 -25.58349609 1.63818359 C-17.01739437 0.2672246 -8.66607335 -0.05148162 0 0 Z " fill="#4D3A32" transform="translate(58.375,2.75)"/>
<path d="M0 0 C1.03930664 0.01353516 1.03930664 0.01353516 2.09960938 0.02734375 C3.79572395 0.05073843 5.49165871 0.08660359 7.1875 0.125 C7.1875 0.785 7.1875 1.445 7.1875 2.125 C5.77597656 2.14626953 5.77597656 2.14626953 4.3359375 2.16796875 C-3.69810854 2.14781405 -3.69810854 2.14781405 -10.5625 5.6875 C-11.305 6.491875 -12.0475 7.29625 -12.8125 8.125 C-13.4725 8.125 -14.1325 8.125 -14.8125 8.125 C-14.8125 9.115 -14.8125 10.105 -14.8125 11.125 C-15.4725 11.125 -16.1325 11.125 -16.8125 11.125 C-18.98102572 18.15549808 -19.12048807 24.73633754 -19.0625 32.0625 C-19.05645752 33.28654541 -19.05041504 34.51059082 -19.04418945 35.77172852 C-18.87842833 51.37035231 -18.58585351 67.39901474 -14.45703125 82.53125 C-13.81719656 85.1060999 -13.58768586 87.48172885 -13.4375 90.125 C-13.12675702 93.51831332 -12.81242736 94.12509282 -10.5625 97 C-3.29062895 102.61917309 1.93453697 103.30595021 10.875 103.3125 C11.73544922 103.32474609 12.59589844 103.33699219 13.48242188 103.34960938 C20.5862121 103.36566919 27.96890694 102.8938188 34.1875 99.125 C35.26335059 96.40064363 35.26335059 96.40064363 36.1875 93.125 C37.14059036 91.20293443 38.14773522 89.32176299 39.1875 87.4453125 C41.35046175 82.42656531 42.22956709 77.36300321 42.72265625 71.9609375 C44.04951499 57.57212267 44.04951499 57.57212267 47.171875 53.6015625 C49.45887113 52.15108509 51.68215941 51.13906643 54.1875 50.125 C56.10219597 48.74170764 56.10219597 48.74170764 57.75 47.25 C58.554375 46.54875 59.35875 45.8475 60.1875 45.125 C59.59050869 48.45635891 58.46737719 50.33775667 56.25 52.875 C55.72535156 53.48859375 55.20070313 54.1021875 54.66015625 54.734375 C53.1875 56.125 53.1875 56.125 51.1875 56.125 C51.00574219 57.11757812 50.82398437 58.11015625 50.63671875 59.1328125 C43.17359257 99.62541643 43.17359257 99.62541643 34.1875 109.125 C29.73091204 111.79524969 26.41841627 112.50870667 21.25 112.5234375 C19.94289062 112.52730469 18.63578125 112.53117187 17.2890625 112.53515625 C16.61520508 112.52887207 15.94134766 112.52258789 15.24707031 112.51611328 C13.1926837 112.50004056 11.1402638 112.51599826 9.0859375 112.53515625 C7.12527344 112.52935547 7.12527344 112.52935547 5.125 112.5234375 C3.93777344 112.52005371 2.75054687 112.51666992 1.52734375 112.51318359 C-4.09271788 111.85997468 -7.99691752 109.57247737 -11.5 105.1875 C-14.7308099 100.81348044 -16.06608694 96.70856916 -17.109375 91.41015625 C-17.69272971 88.68459343 -18.42624246 86.18598517 -19.28515625 83.54296875 C-21.1059615 77.55864836 -21.85647582 71.58353071 -22.5 65.375 C-22.68888794 63.57724121 -22.68888794 63.57724121 -22.8815918 61.74316406 C-23.77013982 52.44258696 -24.10027662 43.21008723 -24.125 33.875 C-24.13039795 32.62106445 -24.1357959 31.36712891 -24.14135742 30.07519531 C-24.0704579 21.00745507 -23.66508165 13.48253121 -17.8125 6.125 C-12.22768307 0.96978437 -7.47834177 -0.18606401 0 0 Z " fill="#191B1D" transform="translate(46.8125,23.875)"/>
<path d="M0 0 C0.66 0.99 1.32 1.98 2 3 C3.32 2.67 4.64 2.34 6 2 C5.125 6.75 5.125 6.75 4 9 C4.99 9 5.98 9 7 9 C7.33 8.01 7.66 7.02 8 6 C9.84930524 7.84930524 9.04440296 11.21337646 9.0625 13.6875 C9.29319512 18.86718067 9.29319512 18.86718067 11.7734375 23.2265625 C13.79494369 24.70802733 15.74351605 25.91559565 18 27 C18.66 27.33 19.32 27.66 20 28 C25.09278602 28.25046489 28.30251351 28.03134551 33 26 C35.8125 25.875 35.8125 25.875 38 26 C37 29 37 29 35 30 C34.34444881 32.52733235 34.34444881 32.52733235 34 35 C34.928125 35.185625 34.928125 35.185625 35.875 35.375 C38 36 38 36 40 38 C33.54513054 42.30324631 26.67830517 44.01947245 19 43 C10.42751584 40.56115016 3.48799422 35.11499574 -1 27.4375 C-4.42387016 19.86103057 -4.36536183 10.89453882 -1.5 3.125 C-1.005 2.09375 -0.51 1.0625 0 0 Z " fill="#BBBABE" transform="translate(58,39)"/>
<path d="M0 0 C3.66373268 2.90232124 5.83904088 5.69038179 6.49609375 10.3203125 C6.58563957 16.06915443 6.10858675 19.45630137 2.16015625 23.953125 C-1.84111918 27.46939735 -5.43532807 28.31293405 -10.77734375 28.234375 C-14.22116467 27.76476306 -16.24983967 26.18173316 -18.83984375 23.953125 C-22.71307691 18.34361491 -23.90598151 13.74594558 -22.83984375 6.953125 C-20.7250437 2.93573667 -17.99988241 0.57181229 -14.02734375 -1.546875 C-9.16038419 -2.31031964 -4.4004568 -2.50386926 0 0 Z " fill="#3A3937" transform="translate(90.83984375,40.046875)"/>
<path d="M0 0 C1.29421875 -0.00773438 2.5884375 -0.01546875 3.921875 -0.0234375 C18.21230599 0.00508631 33.46820125 0.22121269 44.78125 10.140625 C50.89987519 16.725925 53.98731329 23.32238604 54.625 32.25 C53.14 32.745 53.14 32.745 51.625 33.25 C51.398125 32.13625 51.17125 31.0225 50.9375 29.875 C48.9443789 21.9307868 45.4848562 14.32564326 38.390625 9.8359375 C25.34343581 3.55545823 11.40347092 4.06840527 -2.75 4 C-3.4453183 3.9945517 -4.1406366 3.98910339 -4.85702515 3.98348999 C-18.39312817 3.90471867 -29.2690211 4.80206224 -40.125 13.4375 C-51.13436759 27.19920949 -49.73564324 44.86809555 -50 61.5625 C-50.03826629 63.57488509 -50.07732273 65.58725532 -50.1171875 67.59960938 C-50.21222998 72.48294941 -50.29659668 77.36636565 -50.375 82.25 C-50.705 82.25 -51.035 82.25 -51.375 82.25 C-54.95355714 63.23891519 -57.50741303 33.32112092 -47.0234375 16.01953125 C-41.57923462 8.35576874 -34.80657429 3.65961389 -25.58349609 1.63818359 C-17.01739437 0.2672246 -8.66607335 -0.05148162 0 0 Z " fill="#E38A51" transform="translate(58.375,2.75)"/>
<path d="M0 0 C1.20446777 0.01047363 2.40893555 0.02094727 3.64990234 0.03173828 C5.60283203 0.04140625 5.60283203 0.04140625 7.59521484 0.05126953 C8.9754258 0.06798149 10.35563413 0.08491139 11.73583984 0.10205078 C13.12385436 0.11208072 14.51187574 0.12120655 15.89990234 0.12939453 C19.3037201 0.15303215 22.70719491 0.18598211 26.11083984 0.22705078 C26.11083984 0.55705078 26.11083984 0.88705078 26.11083984 1.22705078 C25.16982422 1.32501953 24.22880859 1.42298828 23.25927734 1.52392578 C13.91677049 2.51142874 13.91677049 2.51142874 6.11083984 7.22705078 C7.10083984 7.55705078 8.09083984 7.88705078 9.11083984 8.22705078 C9.11083984 7.23705078 9.11083984 6.24705078 9.11083984 5.22705078 C11.04833984 5.53955078 11.04833984 5.53955078 13.11083984 6.22705078 C13.44083984 7.21705078 13.77083984 8.20705078 14.11083984 9.22705078 C16.12592343 9.96028874 16.12592343 9.96028874 18.11083984 10.22705078 C18.11083984 10.88705078 18.11083984 11.54705078 18.11083984 12.22705078 C19.20396484 12.20642578 20.29708984 12.18580078 21.42333984 12.16455078 C25.11083984 12.22705078 25.11083984 12.22705078 28.11083984 13.22705078 C28.11083984 13.88705078 28.11083984 14.54705078 28.11083984 15.22705078 C26.93521484 15.16517578 25.75958984 15.10330078 24.54833984 15.03955078 C18.99710064 15.05920119 14.93139018 16.68658511 10.67333984 20.28955078 C7.85940765 25.5797433 8.50335706 31.56818861 10.11083984 37.22705078 C9.12083984 36.89705078 8.13083984 36.56705078 7.11083984 36.22705078 C6.78083984 31.60705078 6.45083984 26.98705078 6.11083984 22.22705078 C5.78083984 22.88705078 5.45083984 23.54705078 5.11083984 24.22705078 C4.12083984 24.22705078 3.13083984 24.22705078 2.11083984 24.22705078 C2.44083984 22.24705078 2.77083984 20.26705078 3.11083984 18.22705078 C1.79083984 18.22705078 0.47083984 18.22705078 -0.88916016 18.22705078 C-3.05259027 20.2597368 -3.05259027 20.2597368 -4.88916016 23.22705078 C-4.94705022 19.76878736 -4.98271836 16.31064785 -5.01416016 12.85205078 C-5.03091797 11.86720703 -5.04767578 10.88236328 -5.06494141 9.86767578 C-5.07138672 8.92666016 -5.07783203 7.98564453 -5.08447266 7.01611328 C-5.09494629 6.14680176 -5.10541992 5.27749023 -5.11621094 4.38183594 C-4.73958935 0.8075756 -3.44614881 0.27082292 0 0 Z " fill="#B9B7B8" transform="translate(59.88916015625,23.77294921875)"/>
<path d="M0 0 C0.94875 0.515625 1.8975 1.03125 2.875 1.5625 C5.29073656 3.19667473 5.78657946 4.41136951 7 7 C8.32392972 8.01241685 9.65599167 9.01439389 11 10 C11 10.66 11 11.32 11 12 C11.66 12 12.32 12 13 12 C16.03901852 17.82478551 16.3540919 22.48208608 16 29 C15.01 29.495 15.01 29.495 14 30 C13.91363281 29.39414062 13.82726562 28.78828125 13.73828125 28.1640625 C12.14640056 18.67119601 8.9998382 10.57449887 1.28125 4.46875 C-11.89799313 -4.01651612 -28.93866008 -2.31191142 -44 -2 C-45.05646729 -1.98114746 -45.05646729 -1.98114746 -46.13427734 -1.96191406 C-56.16714352 -1.72941917 -63.1326236 -0.556147 -71 6 C-70.8928061 2.35540735 -69.752005 0.32686058 -67.25 -2.1875 C-53.92181716 -12.53612899 -12.785036 -10.64854457 0 0 Z " fill="#2B3039" transform="translate(98,26)"/>
<path d="M0 0 C2.2259597 3.80309706 3.06990663 7.94161582 4.0625 12.1875 C4.81985548 16.97515625 4.81985548 16.97515625 7 21 C7.14115161 23.67058851 7.04247107 26.32432238 7 29 C6.38511719 29.06058594 5.77023437 29.12117188 5.13671875 29.18359375 C4.32847656 29.26738281 3.52023437 29.35117188 2.6875 29.4375 C1.88699219 29.51871094 1.08648437 29.59992188 0.26171875 29.68359375 C-2.16087179 29.95265693 -2.16087179 29.95265693 -5 31 C-5.16755938 27.04924621 -5.3281242 23.09827679 -5.48217773 19.14697266 C-5.56187238 17.14079929 -5.64712518 15.13484924 -5.73242188 13.12890625 C-5.78076172 11.87207031 -5.82910156 10.61523438 -5.87890625 9.3203125 C-5.9260376 8.15773926 -5.97316895 6.99516602 -6.02172852 5.79736328 C-6 3 -6 3 -5 1 C-2.4375 0.375 -2.4375 0.375 0 0 Z " fill="#E87337" transform="translate(10,92)"/>
<path d="M0 0 C1.66611905 -0.042721 3.33382885 -0.04063832 5 0 C6 1 6 1 6.02172852 3.86743164 C5.97459717 5.11903076 5.92746582 6.37062988 5.87890625 7.66015625 C5.85529526 8.32462265 5.83168427 8.98908905 5.80735779 9.6736908 C5.73056315 11.80350279 5.64660787 13.93296546 5.5625 16.0625 C5.50929506 17.50323791 5.45655457 18.94399305 5.40429688 20.38476562 C5.27492714 23.92339313 5.13913259 27.46174141 5 31 C4.07622559 30.51781006 4.07622559 30.51781006 3.13378906 30.02587891 C-0.17268573 28.43619846 -3.36508691 28.36349131 -7 28 C-6.40317702 21.53315857 -4.87545517 15.68706803 -2.9375 9.5 C-2.65583984 8.5821875 -2.37417969 7.664375 -2.08398438 6.71875 C-1.3951987 4.47727797 -0.70044695 2.23784969 0 0 Z " fill="#FB6C1D" transform="translate(109,93)"/>
<path d="M0 0 C0.80162043 2.32211338 1.13137748 3.5945836 0.36328125 5.96484375 C-3.12085584 12.50569591 -5.92856843 17.02602368 -13 20 C-16.33984375 20.38818359 -16.33984375 20.38818359 -19.9375 20.3984375 C-21.24460938 20.40230469 -22.55171875 20.40617187 -23.8984375 20.41015625 C-24.57229492 20.40387207 -25.24615234 20.39758789 -25.94042969 20.39111328 C-27.9948163 20.37504056 -30.0472362 20.39099826 -32.1015625 20.41015625 C-34.06222656 20.40435547 -34.06222656 20.40435547 -36.0625 20.3984375 C-37.24972656 20.39505371 -38.43695313 20.39166992 -39.66015625 20.38818359 C-44.42380055 19.83451441 -47.74436734 18.23740206 -51.15234375 14.87890625 C-52.03599609 13.73228516 -52.03599609 13.73228516 -52.9375 12.5625 C-53.54464844 11.80066406 -54.15179688 11.03882812 -54.77734375 10.25390625 C-56 8 -56 8 -55.69140625 5.71484375 C-55.46324219 5.14894531 -55.23507813 4.58304687 -55 4 C-54.443125 5.0725 -53.88625 6.145 -53.3125 7.25 C-50.77958186 11.68709774 -47.90472423 14.36509192 -43 16 C-38.60850858 16.26284432 -34.21100193 16.23150919 -29.8125 16.25 C-28.00168945 16.2809375 -28.00168945 16.2809375 -26.15429688 16.3125 C-15.22661303 16.41350223 -15.22661303 16.41350223 -5.9765625 11.1328125 C-5.30753906 10.13894531 -5.30753906 10.13894531 -4.625 9.125 C-4.150625 8.42632812 -3.67625 7.72765625 -3.1875 7.0078125 C-1.84891133 4.74454087 -0.78512225 2.51239121 0 0 Z " fill="#282E36" transform="translate(88,116)"/>
<path d="M0 0 C0.66 0 1.32 0 2 0 C2.25394531 0.94101563 2.50789062 1.88203125 2.76953125 2.8515625 C3.11371094 4.09679687 3.45789062 5.34203125 3.8125 6.625 C4.14894531 7.85476562 4.48539063 9.08453125 4.83203125 10.3515625 C5.89318297 14.00323686 5.89318297 14.00323686 7.63671875 17.2109375 C9 20 9 20 9 24 C8.34 24 7.68 24 7 24 C7 25.65 7 27.3 7 29 C5.7625 29.12375 4.525 29.2475 3.25 29.375 C0.09734779 29.69026522 -2.47588029 30.00727392 -5 32 C-5.70788435 35.33975372 -5.70788435 35.33975372 -5.75 39.125 C-5.80671875 40.40632813 -5.8634375 41.68765625 -5.921875 43.0078125 C-5.94765625 43.99523437 -5.9734375 44.98265625 -6 46 C-6.66 46 -7.32 46 -8 46 C-9.13505547 39.65810279 -9.14858535 33.43093844 -9.125 27 C-9.13080078 25.41832031 -9.13080078 25.41832031 -9.13671875 23.8046875 C-9.12998234 18.42903565 -8.94760458 13.29455256 -8 8 C-7.34 8 -6.68 8 -6 8 C-5.67 14.6 -5.34 21.2 -5 28 C-4.34 27.67 -3.68 27.34 -3 27 C-1.45976004 26.93049459 0.08334988 26.91547643 1.625 26.9375 C2.85089844 26.95103516 2.85089844 26.95103516 4.1015625 26.96484375 C4.72804688 26.97644531 5.35453125 26.98804687 6 27 C5.5244363 21.76879927 4.52364424 17.32468455 2.765625 12.38671875 C1.46728515 8.33934299 0.74168409 4.17960799 0 0 Z " fill="#545251" transform="translate(11,94)"/>
<path d="M0 0 C4.14020334 -0.05039102 8.28023234 -0.08617395 12.4206543 -0.10986328 C13.82172768 -0.11976486 15.22278133 -0.13328969 16.6237793 -0.15087891 C48.26311047 -0.53741763 48.26311047 -0.53741763 60.15625 9.890625 C66.27487519 16.475925 69.36231329 23.07238604 70 32 C68.515 32.495 68.515 32.495 67 33 C66.773125 31.88625 66.54625 30.7725 66.3125 29.625 C64.54432912 22.57739693 61.54752251 15.81997858 56 11 C49.31762757 7.06197418 42.20054008 5.12187027 34.65234375 3.578125 C32 3 32 3 30 2 C27.75025839 1.84504237 25.49628464 1.74989072 23.2421875 1.68359375 C22.57913605 1.66281265 21.91608459 1.64203156 21.23294067 1.62062073 C19.11373306 1.55520769 16.994401 1.49627895 14.875 1.4375 C13.43878919 1.39430691 12.00259098 1.35069236 10.56640625 1.30664062 C7.04440406 1.19953501 3.52226175 1.09824425 0 1 C0 0.67 0 0.34 0 0 Z " fill="#E18C55" transform="translate(43,3)"/>
<path d="M0 0 C1.20446777 0.01047363 2.40893555 0.02094727 3.64990234 0.03173828 C5.60283203 0.04140625 5.60283203 0.04140625 7.59521484 0.05126953 C8.9754258 0.06798149 10.35563413 0.08491139 11.73583984 0.10205078 C13.12385436 0.11208072 14.51187574 0.12120655 15.89990234 0.12939453 C19.3037201 0.15303215 22.70719491 0.18598211 26.11083984 0.22705078 C26.11083984 0.55705078 26.11083984 0.88705078 26.11083984 1.22705078 C25.20462891 1.30181641 24.29841797 1.37658203 23.36474609 1.45361328 C13.64884295 2.50231394 7.06064166 4.44571174 0.73583984 12.10205078 C-1.15828042 15.74458974 -2.55096443 19.34628316 -3.88916016 23.22705078 C-4.21916016 23.22705078 -4.54916016 23.22705078 -4.88916016 23.22705078 C-4.94705022 19.76878736 -4.98271836 16.31064785 -5.01416016 12.85205078 C-5.03091797 11.86720703 -5.04767578 10.88236328 -5.06494141 9.86767578 C-5.07138672 8.92666016 -5.07783203 7.98564453 -5.08447266 7.01611328 C-5.09494629 6.14680176 -5.10541992 5.27749023 -5.11621094 4.38183594 C-4.73958935 0.8075756 -3.44614881 0.27082292 0 0 Z " fill="#F67C2C" transform="translate(59.88916015625,23.77294921875)"/>
<path d="M0 0 C0.65752762 -0.00432541 1.31505524 -0.00865082 1.99250793 -0.0131073 C4.10054907 -0.02313486 6.2083463 -0.02330828 8.31640625 -0.01953125 C9.03477661 -0.01826233 9.75314697 -0.01699341 10.49328613 -0.01568604 C43.56672765 0.09617975 43.56672765 0.09617975 54.84375 9.87109375 C58.83401591 14.20282496 61.6856081 19.13963112 62.06640625 25.10546875 C61.97359375 26.12640625 61.97359375 26.12640625 61.87890625 27.16796875 C60.88042077 25.19299086 59.90142064 23.21742176 58.984375 21.203125 C55.80446697 14.36970561 51.51810253 9.88591867 44.87890625 6.16796875 C41.14665281 5.37114072 41.14665281 5.37114072 37.87890625 5.16796875 C37.87890625 4.50796875 37.87890625 3.84796875 37.87890625 3.16796875 C36.52345703 3.18537109 36.52345703 3.18537109 35.140625 3.203125 C33.96113281 3.21214844 32.78164062 3.22117187 31.56640625 3.23046875 C30.39464844 3.24207031 29.22289062 3.25367188 28.015625 3.265625 C24.87890625 3.16796875 24.87890625 3.16796875 21.87890625 2.16796875 C7.07573984 1.10047584 -12.55762612 0.21586226 -25.12109375 9.16796875 C-27.69869095 11.75241953 -27.69869095 11.75241953 -29.12109375 14.16796875 C-30.11109375 13.83796875 -31.10109375 13.50796875 -32.12109375 13.16796875 C-22.76162282 3.24125715 -13.74909781 0.08569574 0 0 Z " fill="#553629" transform="translate(47.12109375,5.83203125)"/>
<path d="M0 0 C0.70253906 0.00386719 1.40507813 0.00773437 2.12890625 0.01171875 C2.83144531 0.00785156 3.53398438 0.00398438 4.2578125 0 C9.50229247 0.01010497 9.50229247 0.01010497 10.62890625 1.13671875 C10.76171875 2.94921875 10.76171875 2.94921875 10.75390625 5.13671875 C10.75777344 6.21953125 10.75777344 6.21953125 10.76171875 7.32421875 C10.62890625 9.13671875 10.62890625 9.13671875 9.62890625 10.13671875 C7.11754521 10.23646907 4.6398721 10.27554058 2.12890625 10.26171875 C1.42636719 10.26558594 0.72382812 10.26945312 0 10.2734375 C-5.24447997 10.26333253 -5.24447997 10.26333253 -6.37109375 9.13671875 C-6.50390625 7.32421875 -6.50390625 7.32421875 -6.49609375 5.13671875 C-6.49867187 4.41484375 -6.50125 3.69296875 -6.50390625 2.94921875 C-6.21367609 -1.01156929 -3.3077406 0.0063733 0 0 Z " fill="#F63633" transform="translate(40.37109375,60.86328125)"/>
<path d="M0 0 C0.66 0 1.32 0 2 0 C2.33 1.65 2.66 3.3 3 5 C4.65 3.68 6.3 2.36 8 1 C8.33 1.66 8.66 2.32 9 3 C9.66 2.01 10.32 1.02 11 0 C11.33 1.98 11.66 3.96 12 6 C11.34 6 10.68 6 10 6 C10.33 6.99 10.66 7.98 11 9 C11.24194538 13.43566534 11.01410047 16.10607242 9 20 C9.29805007 22.19747131 9.29805007 22.19747131 10 24 C9.01 23.67 8.02 23.34 7 23 C7 22.01 7 21.02 7 20 C6.34 20 5.68 20 5 20 C4.01 16.7 3.02 13.4 2 10 C1.01 10 0.02 10 -1 10 C-1 8.68 -1 7.36 -1 6 C-0.34 6 0.32 6 1 6 C0.67 4.02 0.34 2.04 0 0 Z " fill="#38404B" transform="translate(19,112)"/>
<path d="M0 0 C2.65061656 0.03673928 5.29983755 0.0410167 7.95068359 0.04052734 C9.65512264 0.05035333 11.35955234 0.06200807 13.06396484 0.07568359 C13.84640564 0.07790924 14.62884644 0.08013489 15.43499756 0.08242798 C20.26820572 0.16523181 24.30032594 0.88686345 28.89208984 2.41162109 C28.89208984 2.74162109 28.89208984 3.07162109 28.89208984 3.41162109 C27.73273926 3.40114746 26.57338867 3.39067383 25.37890625 3.37988281 C21.03649032 3.34340914 16.69408766 3.32062195 12.3515625 3.30175781 C10.47979447 3.29176215 8.6080418 3.27816112 6.73632812 3.26074219 C4.03039738 3.23620842 1.32467486 3.22507342 -1.38134766 3.21630859 C-2.20468597 3.20598602 -3.02802429 3.19566345 -3.87631226 3.18502808 C-11.5346572 3.18358211 -19.46257956 3.88186788 -26.10791016 7.97412109 C-26.82978516 8.40853516 -27.55166016 8.84294922 -28.29541016 9.29052734 C-28.89353516 9.66048828 -29.49166016 10.03044922 -30.10791016 10.41162109 C-31.09791016 10.90662109 -31.09791016 10.90662109 -32.10791016 11.41162109 C-31.53445093 8.08555758 -30.65034695 6.60710183 -28.10791016 4.41162109 C-19.37927674 -0.61595271 -9.73034607 -0.13965268 0 0 Z " fill="#E68A50" transform="translate(51.10791015625,3.58837890625)"/>
<path d="M0 0 C3.66373268 2.90232124 5.83904088 5.69038179 6.49609375 10.3203125 C6.58563957 16.06915443 6.10858675 19.45630137 2.16015625 23.953125 C-1.84111918 27.46939735 -5.43532807 28.31293405 -10.77734375 28.234375 C-14.22116467 27.76476306 -16.24983967 26.18173316 -18.83984375 23.953125 C-22.71307691 18.34361491 -23.90598151 13.74594558 -22.83984375 6.953125 C-20.7250437 2.93573667 -17.99988241 0.57181229 -14.02734375 -1.546875 C-9.16038419 -2.31031964 -4.4004568 -2.50386926 0 0 Z M-20.71484375 6.203125 C-22.21549739 9.87138946 -22.63637601 13.09469349 -21.83984375 16.953125 C-19.81553083 20.92419095 -17.54596818 23.48237538 -13.83984375 25.953125 C-8.83435181 26.6194908 -4.32562087 26.75792094 0.16015625 24.328125 C3.69068061 20.13562732 5.47277673 16.92584643 5.16015625 11.390625 C4.47944867 6.89795494 2.76575273 4.78609366 -0.83984375 1.953125 C-8.02857913 -2.83936525 -15.43086829 -0.13764556 -20.71484375 6.203125 Z " fill="#9F6A50" transform="translate(90.83984375,40.046875)"/>
<path d="M0 0 C0.61875 0.33 1.2375 0.66 1.875 1 C6.26211512 2.40387684 10.43151427 2.15967523 15 2 C14.67 2.66 14.34 3.32 14 4 C11.71484375 4.4140625 11.71484375 4.4140625 8.9375 4.625 C8.01839844 4.69976562 7.09929687 4.77453125 6.15234375 4.8515625 C5.08693359 4.92503906 5.08693359 4.92503906 4 5 C4 5.66 4 6.32 4 7 C4.99 7 5.98 7 7 7 C6.67 8.98 6.34 10.96 6 13 C6.99 13 7.98 13 9 13 C9 13.66 9 14.32 9 15 C10.98 15 12.96 15 15 15 C12.66055271 17.33944729 12.12400261 17.31880066 8.9375 17.375 C3.67355273 17.28954631 -0.40691031 15.43227445 -5 13 C-5 12.34 -5 11.68 -5 11 C-4.34 11 -3.68 11 -3 11 C-2.67 10.34 -2.34 9.68 -2 9 C-1.01 9 -0.02 9 1 9 C1.33 8.34 1.66 7.68 2 7 C1.34 6.67 0.68 6.34 0 6 C0.66 4.68 1.32 3.36 2 2 C1.34 2 0.68 2 0 2 C0 1.34 0 0.68 0 0 Z " fill="#B9B6B7" transform="translate(73,65)"/>
<path d="M0 0 C0.33 0 0.66 0 1 0 C1 12.21 1 24.42 1 37 C0.34 37 -0.32 37 -1 37 C-1.33 38.98 -1.66 40.96 -2 43 C-2.33 43 -2.66 43 -3 43 C-3.33 40.36 -3.66 37.72 -4 35 C-8.95 35 -13.9 35 -19 35 C-19.33 37.64 -19.66 40.28 -20 43 C-20.33 43 -20.66 43 -21 43 C-21.02688151 41.35425434 -21.04634123 39.70838587 -21.0625 38.0625 C-21.07410156 37.14597656 -21.08570313 36.22945312 -21.09765625 35.28515625 C-21 33 -21 33 -20 32 C-16.44031275 31.83612693 -12.88299157 31.74503063 -9.3203125 31.671875 C-5.81918732 31.34275412 -5.81918732 31.34275412 -4.0546875 28.453125 C-3.70664062 27.64359375 -3.35859375 26.8340625 -3 26 C-2.34 26.33 -1.68 26.66 -1 27 C-0.67 18.09 -0.34 9.18 0 0 Z " fill="#5A463A" transform="translate(54,27)"/>
<path d="M0 0 C0.33 0 0.66 0 1 0 C1.33 6.93 1.66 13.86 2 21 C2.33 16.71 2.66 12.42 3 8 C3.33 8 3.66 8 4 8 C4.28867075 12.24983235 4.57333607 16.4999096 4.85449219 20.75024414 C4.9504302 22.19237282 5.04741146 23.63443254 5.14550781 25.07641602 C5.66509055 32.72435583 6.13713378 40.32907932 6 48 C5.67 48 5.34 48 5 48 C4.34 43.38 3.68 38.76 3 34 C2.67 36.31 2.34 38.62 2 41 C1.67 41 1.34 41 1 41 C-0.03954991 32.0964367 -0.11928731 23.26667943 -0.0625 14.3125 C-0.05747028 12.91731933 -0.05291 11.52213689 -0.04882812 10.12695312 C-0.03714751 6.75125563 -0.02076833 3.37565174 0 0 Z " fill="#1F2123" transform="translate(23,44)"/>
<path d="M0 0 C1.47816027 2.95632055 0.43812449 4.73239219 -0.43359375 7.8828125 C-0.75263672 9.04941406 -1.07167969 10.21601562 -1.40039062 11.41796875 C-1.74263672 12.64128906 -2.08488281 13.86460938 -2.4375 15.125 C-2.94506836 16.97158203 -2.94506836 16.97158203 -3.46289062 18.85546875 C-4.30223055 21.90546454 -5.14819594 24.95346607 -6 28 C-3.36 28 -0.72 28 2 28 C2 28.33 2 28.66 2 29 C-1.96 29 -5.92 29 -10 29 C-8.42043827 20.98068663 -6.7266971 12.98885193 -5 5 C-4.34 5 -3.68 5 -3 5 C-3 4.01 -3 3.02 -3 2 C-2.01 1.34 -1.02 0.68 0 0 Z " fill="#663421" transform="translate(108,93)"/>
<path d="M0 0 C0.66 0 1.32 0 2 0 C2.76776475 4.0752634 3.11902034 7.91005447 3.09765625 12.0546875 C3.09443359 13.16328125 3.09121094 14.271875 3.08789062 15.4140625 C3.07951172 16.55617188 3.07113281 17.69828125 3.0625 18.875 C3.05798828 20.0403125 3.05347656 21.205625 3.04882812 22.40625 C3.03708781 25.27088645 3.0206657 28.13541633 3 31 C2.34 31 1.68 31 1 31 C1 28.69 1 26.38 1 24 C-2.11910856 22.20724134 -4.67682428 21.65709282 -8.25 21.375 C-9.14203125 21.30023438 -10.0340625 21.22546875 -10.953125 21.1484375 C-11.96632813 21.07496094 -11.96632813 21.07496094 -13 21 C-13 20.67 -13 20.34 -13 20 C-11.18757948 19.97312721 -9.37504767 19.95366285 -7.5625 19.9375 C-6.55316406 19.92589844 -5.54382813 19.91429688 -4.50390625 19.90234375 C-2 20 -2 20 -1 21 C-0.67 14.07 -0.34 7.14 0 0 Z " fill="#6B574F" transform="translate(114,102)"/>
<path d="M0 0 C0.33 0 0.66 0 1 0 C1.03738281 0.66644531 1.07476562 1.33289063 1.11328125 2.01953125 C1.55473748 8.20857453 2.6017263 13.77058574 4.4765625 19.6875 C5 22 5 22 4 25 C4.66 25.33 5.32 25.66 6 26 C6.40729228 28.32156597 6.74438677 30.6568787 7 33 C6.01 33.495 6.01 33.495 5 34 C4.67 31.69 4.34 29.38 4 27 C3.34 27 2.68 27 2 27 C-0.40578069 24.63509422 -0.97416106 23.24700799 -1.328125 19.86328125 C-1.30234375 18.69152344 -1.2765625 17.51976562 -1.25 16.3125 C-1.22421875 15.07886719 -1.1984375 13.84523438 -1.171875 12.57421875 C-0.96818923 8.33848053 -0.57931553 4.20003759 0 0 Z " fill="#32333A" transform="translate(9,67)"/>
<path d="M0 0 C1.32 0 2.64 0 4 0 C4.33 0.99 4.66 1.98 5 3 C5.66 3.66 6.32 4.32 7 5 C7.56520003 7.65537372 7.73788198 10.29144713 8 13 C5.03 13 2.06 13 -1 13 C-1.02696365 11.20841511 -1.04637917 9.41671527 -1.0625 7.625 C-1.07410156 6.62726563 -1.08570313 5.62953125 -1.09765625 4.6015625 C-1 2 -1 2 0 0 Z " fill="#F86819" transform="translate(8,107)"/>
<path d="M0 0 C0.70253906 0.00386719 1.40507813 0.00773437 2.12890625 0.01171875 C2.83144531 0.00785156 3.53398438 0.00398438 4.2578125 0 C9.50229247 0.01010497 9.50229247 0.01010497 10.62890625 1.13671875 C10.76171875 2.94921875 10.76171875 2.94921875 10.75390625 5.13671875 C10.75777344 6.21953125 10.75777344 6.21953125 10.76171875 7.32421875 C10.62890625 9.13671875 10.62890625 9.13671875 9.62890625 10.13671875 C7.11754521 10.23646907 4.6398721 10.27554058 2.12890625 10.26171875 C1.42636719 10.26558594 0.72382812 10.26945312 0 10.2734375 C-5.24447997 10.26333253 -5.24447997 10.26333253 -6.37109375 9.13671875 C-6.50390625 7.32421875 -6.50390625 7.32421875 -6.49609375 5.13671875 C-6.49867187 4.41484375 -6.50125 3.69296875 -6.50390625 2.94921875 C-6.21367609 -1.01156929 -3.3077406 0.0063733 0 0 Z M-2.37109375 1.13671875 C-3.36109375 2.62171875 -3.36109375 2.62171875 -4.37109375 4.13671875 C-4.04109375 5.78671875 -3.71109375 7.43671875 -3.37109375 9.13671875 C2.56890625 8.64171875 2.56890625 8.64171875 8.62890625 8.13671875 C8.62890625 5.82671875 8.62890625 3.51671875 8.62890625 1.13671875 C6.83797434 1.05585728 5.04600997 0.99759173 3.25390625 0.94921875 C2.25617187 0.91441406 1.2584375 0.87960938 0.23046875 0.84375 C-1.05730469 0.98876953 -1.05730469 0.98876953 -2.37109375 1.13671875 Z " fill="#D63D40" transform="translate(40.37109375,60.86328125)"/>
<path d="M0 0 C1.20446777 0.01047363 2.40893555 0.02094727 3.64990234 0.03173828 C5.60283203 0.04140625 5.60283203 0.04140625 7.59521484 0.05126953 C8.9754258 0.06798149 10.35563413 0.08491139 11.73583984 0.10205078 C13.12385436 0.11208072 14.51187574 0.12120655 15.89990234 0.12939453 C19.3037201 0.15303215 22.70719491 0.18598211 26.11083984 0.22705078 C26.11083984 0.55705078 26.11083984 0.88705078 26.11083984 1.22705078 C24.66451172 1.42621094 24.66451172 1.42621094 23.18896484 1.62939453 C21.29404297 1.89429687 21.29404297 1.89429687 19.36083984 2.16455078 C17.48138672 2.42558594 17.48138672 2.42558594 15.56396484 2.69189453 C13.01101392 3.08754417 10.59221075 3.531515 8.11083984 4.22705078 C8.11083984 3.23705078 8.11083984 2.24705078 8.11083984 1.22705078 C6.46453657 1.36747955 4.81879805 1.51454407 3.17333984 1.66455078 C2.25681641 1.74576172 1.34029297 1.82697266 0.39599609 1.91064453 C-1.85075747 1.98750054 -1.85075747 1.98750054 -2.88916016 3.22705078 C-2.96142517 5.0799258 -2.97297235 6.93538956 -2.95166016 8.78955078 C-2.94263672 9.80146484 -2.93361328 10.81337891 -2.92431641 11.85595703 C-2.91271484 12.63841797 -2.90111328 13.42087891 -2.88916016 14.22705078 C-2.22916016 14.55705078 -1.56916016 14.88705078 -0.88916016 15.22705078 C-1.87916016 17.86705078 -2.86916016 20.50705078 -3.88916016 23.22705078 C-4.21916016 23.22705078 -4.54916016 23.22705078 -4.88916016 23.22705078 C-4.94705022 19.76878736 -4.98271836 16.31064785 -5.01416016 12.85205078 C-5.03091797 11.86720703 -5.04767578 10.88236328 -5.06494141 9.86767578 C-5.07138672 8.92666016 -5.07783203 7.98564453 -5.08447266 7.01611328 C-5.09494629 6.14680176 -5.10541992 5.27749023 -5.11621094 4.38183594 C-4.73958935 0.8075756 -3.44614881 0.27082292 0 0 Z " fill="#DD844B" transform="translate(59.88916015625,23.77294921875)"/>
<path d="M0 0 C0.66 0 1.32 0 2 0 C1.57483041 8.95788336 0.25824035 17.32210784 -2 26 C-2.66 26 -3.32 26 -4 26 C-3.64390639 16.9011942 -2.87704025 8.70349911 0 0 Z " fill="#121516" transform="translate(93,81)"/>
<path d="M0 0 C4.14020334 -0.05039102 8.28023234 -0.08617395 12.4206543 -0.10986328 C13.82172768 -0.11976486 15.22278133 -0.13328969 16.6237793 -0.15087891 C26.60809983 -0.27285767 36.1310172 0.41889502 46 2 C46 2.66 46 3.32 46 4 C41.77489496 4.98885437 39.23042453 5.27095443 35.21875 3.5625 C28.49836527 1.19372117 21.47840496 1.42814289 14.4375 1.3125 C13.0331726 1.27926052 11.62887433 1.24476495 10.22460938 1.20898438 C6.81648692 1.12700205 3.40860575 1.05768655 0 1 C0 0.67 0 0.34 0 0 Z " fill="#EBA06F" transform="translate(43,3)"/>
<path d="M0 0 C0.78347427 2.28937287 1.12854612 3.58765077 0.3984375 5.9296875 C-5.44274292 17.03238921 -5.44274292 17.03238921 -10.3125 18.875 C-10.869375 18.91625 -11.42625 18.9575 -12 19 C-11.875 16.25 -11.875 16.25 -11 13 C-9.63875 12.1028125 -9.63875 12.1028125 -8.25 11.1875 C-3.8913603 8.2538002 -2.24408789 4.64704927 0 0 Z " fill="#090B10" transform="translate(88,112)"/>
<path d="M0 0 C4.0018325 -0.04978833 8.00354265 -0.08590164 12.00561523 -0.10986328 C13.36437118 -0.11986243 14.72310594 -0.13346624 16.08178711 -0.15087891 C18.04531296 -0.17539594 20.00900201 -0.18546962 21.97265625 -0.1953125 C23.15093994 -0.20578613 24.32922363 -0.21625977 25.54321289 -0.22705078 C29.35125693 0.02307147 32.38113496 0.83210274 36 2 C36 2.33 36 2.66 36 3 C31.99796184 2.88088488 27.99611994 2.75658828 23.99438477 2.62768555 C22.6357042 2.58462706 21.27697959 2.54293435 19.91821289 2.50268555 C17.95447697 2.44427107 15.99090636 2.38038197 14.02734375 2.31640625 C12.25991821 2.26141968 12.25991821 2.26141968 10.45678711 2.20532227 C6.92711235 1.9956707 3.49181389 1.5478502 0 1 C0 0.67 0 0.34 0 0 Z " fill="#DC793A" transform="translate(44,4)"/>
<path d="M0 0 C0.66 0 1.32 0 2 0 C2.25394531 0.94101563 2.50789062 1.88203125 2.76953125 2.8515625 C3.11371094 4.09679687 3.45789063 5.34203125 3.8125 6.625 C4.14894531 7.85476562 4.48539063 9.08453125 4.83203125 10.3515625 C5.89318297 14.00323686 5.89318297 14.00323686 7.63671875 17.2109375 C9 20 9 20 9 24 C8.34 24 7.68 24 7 24 C7 25.32 7 26.64 7 28 C3.7 28 0.4 28 -3 28 C-3 27.67 -3 27.34 -3 27 C-0.03 27 2.94 27 6 27 C5.5244363 21.76879927 4.52364424 17.32468455 2.765625 12.38671875 C1.46728515 8.33934299 0.74168409 4.17960799 0 0 Z " fill="#6A311D" transform="translate(11,94)"/>
<path d="M0 0 C0.33 0 0.66 0 1 0 C1.33 1.98 1.66 3.96 2 6 C2.33 4.02 2.66 2.04 3 0 C3.33 0 3.66 0 4 0 C4.35621515 6.4118727 3.53060222 12.04495899 1 18 C0.34 18.33 -0.32 18.66 -1 19 C-1.66 18.67 -2.32 18.34 -3 18 C-2.86722656 17.45472656 -2.73445313 16.90945312 -2.59765625 16.34765625 C-1.32210753 10.90097013 -0.53036157 5.56879648 0 0 Z " fill="#4E5052" transform="translate(111,49)"/>
<path d="M0 0 C0.474375 0.70125 0.94875 1.4025 1.4375 2.125 C4.3534618 5.3965669 7.38738046 7.22638374 11.171875 9.375 C13 11 13 11 13.265625 13.6875 C13.17796875 14.450625 13.0903125 15.21375 13 16 C9.60289216 15.3933736 7.61464798 14.23753529 5 12 C3.515625 9.84375 3.515625 9.84375 2.25 7.5 C1.60804687 6.33984375 1.60804687 6.33984375 0.953125 5.15625 C0 3 0 3 0 0 Z " fill="#151618" transform="translate(31,115)"/>
<path d="M0 0 C0.66 0 1.32 0 2 0 C2.33 6.6 2.66 13.2 3 20 C6.96 20 10.92 20 15 20 C15 20.33 15 20.66 15 21 C13.72125 21.12375 12.4425 21.2475 11.125 21.375 C7.65209064 21.69042399 7.65209064 21.69042399 5 24 C3.68 24 2.36 24 1 24 C0.67 16.08 0.34 8.16 0 0 Z " fill="#76503D" transform="translate(3,102)"/>
<path d="M0 0 C2.08410658 0.08733973 4.16734669 0.19552278 6.25 0.3125 C7.99023438 0.39951172 7.99023438 0.39951172 9.765625 0.48828125 C13.14429761 1.02282969 14.66497316 1.52761864 17 4 C17.25 7.6875 17.25 7.6875 17 11 C16.443125 10.195625 15.88625 9.39125 15.3125 8.5625 C12.72097218 5.69080701 11.69886685 5.48669301 8 5 C7.34 4.34 6.68 3.68 6 3 C3.39719432 3.32041397 3.39719432 3.32041397 1 4 C0.67 2.68 0.34 1.36 0 0 Z " fill="#4E5864" transform="translate(98,122)"/>
<path d="M0 0 C1.1127832 -0.01836914 1.1127832 -0.01836914 2.24804688 -0.03710938 C4.18763629 -0.04238478 6.1267371 0.06561098 8.0625 0.1875 C10.0625 2.1875 10.0625 2.1875 10.2578125 4.3515625 C10.23460938 5.16367187 10.21140625 5.97578125 10.1875 6.8125 C10.16945313 7.62976563 10.15140625 8.44703125 10.1328125 9.2890625 C10.10960938 9.91554688 10.08640625 10.54203125 10.0625 11.1875 C9.7325 11.1875 9.4025 11.1875 9.0625 11.1875 C8.7325 8.5475 8.4025 5.9075 8.0625 3.1875 C3.1125 3.1875 -1.8375 3.1875 -6.9375 3.1875 C-7.2675 5.8275 -7.5975 8.4675 -7.9375 11.1875 C-8.2675 11.1875 -8.5975 11.1875 -8.9375 11.1875 C-8.96438151 9.54175434 -8.98384123 7.89588587 -9 6.25 C-9.01160156 5.33347656 -9.02320313 4.41695312 -9.03515625 3.47265625 C-8.8182747 -1.60237197 -3.96413798 0.00342622 0 0 Z " fill="#5B1D1F" transform="translate(41.9375,58.8125)"/>
<path d="M0 0 C3 1 3 1 4.6875 3.9375 C6.52710182 8.53650456 6.26476769 13.12631335 6 18 C5.34 18.33 4.68 18.66 4 19 C3.89042969 18.35933594 3.78085938 17.71867187 3.66796875 17.05859375 C2.89405476 12.83667273 2.11596401 8.91302053 0.3125 5 C-0.120625 4.01 -0.55375 3.02 -1 2 C-0.67 1.34 -0.34 0.68 0 0 Z " fill="#3B3A3B" transform="translate(108,37)"/>
<path d="M0 0 C4.38296556 0.48699617 6.03183648 1.83395891 9 5 C9.99 5.33 10.98 5.66 12 6 C12.68486725 7.32407669 13.34870203 8.65909241 14 10 C15.29470975 11.37086915 16.62150897 12.71340837 18 14 C17.34 14.66 16.68 15.32 16 16 C15.52691406 15.39671875 15.05382812 14.7934375 14.56640625 14.171875 C9.92880093 8.56697189 5.92725516 5.29304974 -1 3 C-0.67 2.01 -0.34 1.02 0 0 Z " fill="#2D3238" transform="translate(91,23)"/>
<path d="M0 0 C1.40907283 2.81814566 0.50872691 4.17277204 -0.4375 7.125 C-0.72496094 8.03507812 -1.01242188 8.94515625 -1.30859375 9.8828125 C-1.65083984 10.93082031 -1.65083984 10.93082031 -2 12 C-2.66 12 -3.32 12 -4 12 C-4.66 13.65 -5.32 15.3 -6 17 C-6.33 17 -6.66 17 -7 17 C-6.44687265 12.97007218 -5.8441938 8.97977076 -5 5 C-4.34 5 -3.68 5 -3 5 C-3 4.01 -3 3.02 -3 2 C-2.01 1.34 -1.02 0.68 0 0 Z " fill="#563A32" transform="translate(108,93)"/>
<path d="M0 0 C2.475 0.99 2.475 0.99 5 2 C5 1.34 5 0.68 5 0 C5.66 0 6.32 0 7 0 C7 1.98 7 3.96 7 6 C9.31 6.33 11.62 6.66 14 7 C14.33 6.01 14.66 5.02 15 4 C15 4.66 15 5.32 15 6 C15.99 6.33 16.98 6.66 18 7 C16.28310511 8.71689489 14.09121863 8.25303054 11.75 8.3125 C7.92676886 8.27774335 6.27150392 8.1520422 2.875 6.25 C1.04724408 4.05669289 0.30104205 2.80972581 0 0 Z " fill="#46352C" transform="translate(71,58)"/>
<path d="M0 0 C3 1 3 1 4.75 3.5 C6.30676966 7.85895506 6.24939885 11.53786124 5 16 C4.34 16.33 3.68 16.66 3 17 C2.40667939 12.62426048 1.86172764 8.42471556 2 4 C1.34 4 0.68 4 0 4 C0 2.68 0 1.36 0 0 Z " fill="#4A362C" transform="translate(90,43)"/>
<path d="M0 0 C0.33 0 0.66 0 1 0 C1.38831218 2.95714663 1.76115547 5.91483273 2.125 8.875 C2.23714844 9.71675781 2.34929688 10.55851562 2.46484375 11.42578125 C2.56152344 12.23144531 2.65820312 13.03710938 2.7578125 13.8671875 C2.8520752 14.61081543 2.94633789 15.35444336 3.04345703 16.12060547 C3 18 3 18 1 20 C-1.42264549 16.27506286 -1.26500684 12.59985186 -1.1875 8.3125 C-1.18685547 7.62349609 -1.18621094 6.93449219 -1.18554688 6.22460938 C-1.14055525 1.14055525 -1.14055525 1.14055525 0 0 Z " fill="#141617" transform="translate(26,77)"/>
<path d="M0 0 C0.33 0 0.66 0 1 0 C1 2.31 1 4.62 1 7 C1.99 6.67 2.98 6.34 4 6 C4 6.66 4 7.32 4 8 C3.01 8 2.02 8 1 8 C1 10.97 1 13.94 1 17 C-0.32 17 -1.64 17 -3 17 C-2.69188262 14.54104382 -2.37871012 12.08291693 -2.0625 9.625 C-1.97548828 8.92632812 -1.88847656 8.22765625 -1.79882812 7.5078125 C-1.11328125 2.2265625 -1.11328125 2.2265625 0 0 Z " fill="#ED5E17" transform="translate(106,103)"/>
<path d="M0 0 C0.33 0.66 0.66 1.32 1 2 C1.66 2 2.32 2 3 2 C2.67 4.97 2.34 7.94 2 11 C1.01 11 0.02 11 -1 11 C-3.21168225 13.94236782 -3.21168225 13.94236782 -5 17 C-5.75 15.375 -5.75 15.375 -6 13 C-4.69791204 10.97951869 -3.36011609 8.98188345 -2 7 C-1.14590203 4.68040059 -0.57847432 2.41030966 0 0 Z " fill="#1C1E21" transform="translate(88,105)"/>
<path d="M0 0 C0.33 0 0.66 0 1 0 C1 5.94 1 11.88 1 18 C1.66 18 2.32 18 3 18 C3 23.61 3 29.22 3 35 C2.67 35 2.34 35 2 35 C-0.20337033 23.29459515 -0.22082273 11.86667354 0 0 Z " fill="#E0AA87" transform="translate(5,50)"/>
<path d="M0 0 C0 0.99 0 1.98 0 3 C-1.2065625 3.433125 -1.2065625 3.433125 -2.4375 3.875 C-5.1326468 4.73262568 -5.1326468 4.73262568 -6 7 C-6.66 7 -7.32 7 -8 7 C-8 10.3 -8 13.6 -8 17 C-8.66 16.67 -9.32 16.34 -10 16 C-10.42014232 9.90793639 -10.06715472 6.88058567 -6 2 C-3 0 -3 0 0 0 Z " fill="#5A3624" transform="translate(79,41)"/>
<path d="M0 0 C1.37478516 0.01740234 1.37478516 0.01740234 2.77734375 0.03515625 C3.69644531 0.04417969 4.61554688 0.05320312 5.5625 0.0625 C6.27277344 0.07410156 6.98304687 0.08570312 7.71484375 0.09765625 C7.71484375 1.08765625 7.71484375 2.07765625 7.71484375 3.09765625 C6.72484375 3.42765625 5.73484375 3.75765625 4.71484375 4.09765625 C4.38484375 3.76765625 4.05484375 3.43765625 3.71484375 3.09765625 C3.38484375 4.08765625 3.05484375 5.07765625 2.71484375 6.09765625 C1.39484375 5.76765625 0.07484375 5.43765625 -1.28515625 5.09765625 C-1.28515625 4.43765625 -1.28515625 3.77765625 -1.28515625 3.09765625 C-1.94515625 3.09765625 -2.60515625 3.09765625 -3.28515625 3.09765625 C-3.61515625 3.75765625 -3.94515625 4.41765625 -4.28515625 5.09765625 C-3.16461059 0.13523977 -3.16461059 0.13523977 0 0 Z " fill="#FB7D2A" transform="translate(60.28515625,24.90234375)"/>
<path d="M0 0 C1.66611905 -0.042721 3.33382885 -0.04063832 5 0 C6 1 6 1 6.02172852 3.86743164 C5.97459717 5.11903076 5.92746582 6.37062988 5.87890625 7.66015625 C5.85529526 8.32462265 5.83168427 8.98908905 5.80735779 9.6736908 C5.73056315 11.80350279 5.64660787 13.93296546 5.5625 16.0625 C5.50929506 17.50323791 5.45655457 18.94399305 5.40429688 20.38476562 C5.27492714 23.92339313 5.13913259 27.46174141 5 31 C4.67 31 4.34 31 4 31 C4 21.43 4 11.86 4 2 C2.68 2 1.36 2 0 2 C0 1.34 0 0.68 0 0 Z " fill="#E48A56" transform="translate(109,93)"/>
<path d="M0 0 C2.51884651 2.51884651 2.8257588 4.43644242 3.6875 7.875 C3.95949219 8.92429687 4.23148438 9.97359375 4.51171875 11.0546875 C4.97540921 13.85166838 4.94575698 15.372192 4 18 C2.68 17.34 1.36 16.68 0 16 C0.66 16 1.32 16 2 16 C2 15.01 2 14.02 2 13 C1.34 13 0.68 13 0 13 C0 8.66666667 0 4.33333333 0 0 Z " fill="#E55B1A" transform="translate(10,94)"/>
<path d="M0 0 C1 2 1 2 0.0625 5.125 C-0.288125 6.07375 -0.63875 7.0225 -1 8 C0.32 8 1.64 8 3 8 C3 7.34 3 6.68 3 6 C4.32 6 5.64 6 7 6 C7.33 5.01 7.66 4.02 8 3 C8.33 3 8.66 3 9 3 C9 5.64 9 8.28 9 11 C5.37 10.34 1.74 9.68 -2 9 C-1.125 1.125 -1.125 1.125 0 0 Z " fill="#EA6825" transform="translate(104,112)"/>
<path d="M0 0 C5.94 0 11.88 0 18 0 C18 0.33 18 0.66 18 1 C16.94039062 1.04898437 15.88078125 1.09796875 14.7890625 1.1484375 C13.40101503 1.22346709 12.01299549 1.29901485 10.625 1.375 C9.57699219 1.42140625 9.57699219 1.42140625 8.5078125 1.46875 C4.29814173 1.59499498 4.29814173 1.59499498 1 4 C0.69400937 6.56916657 0.48912913 9.04758384 0.375 11.625 C0.33632813 12.33140625 0.29765625 13.0378125 0.2578125 13.765625 C0.16352276 15.50998524 0.08067109 17.25495691 0 19 C-0.33 19 -0.66 19 -1 19 C-1.02697137 16.39576408 -1.04682489 13.79180756 -1.0625 11.1875 C-1.07087891 10.44951172 -1.07925781 9.71152344 -1.08789062 8.95117188 C-1.10259828 5.70077932 -1.03531702 3.10595105 0 0 Z " fill="#4C2E1E" transform="translate(54,23)"/>
<path d="M0 0 C1.65 0 3.3 0 5 0 C4.34 3.3 3.68 6.6 3 10 C2.67 9.34 2.34 8.68 2 8 C1.01 8 0.02 8 -1 8 C-0.67 5.36 -0.34 2.72 0 0 Z " fill="#F1631D" transform="translate(108,95)"/>
<path d="M0 0 C0.99 0.33 1.98 0.66 3 1 C4.4002792 6.46108889 3.42705634 10.69276568 2 16 C0.68 15.67 -0.64 15.34 -2 15 C-1.50886719 14.18789063 -1.50886719 14.18789063 -1.0078125 13.359375 C0.21664767 10.49280933 0.19892146 8.3547013 0.125 5.25 C0.10695313 4.26515625 0.08890625 3.2803125 0.0703125 2.265625 C0.04710938 1.51796875 0.02390625 0.7703125 0 0 Z " fill="#C4B2A9" transform="translate(96,47)"/>
<path d="M0 0 C1.06775224 1.96466413 2.06553465 3.96855359 3 6 C2.67 6.66 2.34 7.32 2 8 C1.401875 7.690625 0.80375 7.38125 0.1875 7.0625 C-2.08956772 5.89790296 -2.08956772 5.89790296 -5 5 C-5.99 5.495 -5.99 5.495 -7 6 C-6.6875 4.125 -6.6875 4.125 -6 2 C-3 0 -3 0 0 0 Z " fill="#485361" transform="translate(21,122)"/>
<path d="M0 0 C0.33 0 0.66 0 1 0 C1.33 2.97 1.66 5.94 2 9 C0.02 9.99 0.02 9.99 -2 11 C-2.33 11.99 -2.66 12.98 -3 14 C-3.34615998 8.34605369 -2.43425238 4.96993194 0 0 Z " fill="#3B4149" transform="translate(107,84)"/>
<path d="M0 0 C0.66 0 1.32 0 2 0 C4.10575375 5.52760359 5.37851209 10.06997733 5 16 C4.34 15.67 3.68 15.34 3 15 C2.1484375 12.3828125 2.1484375 12.3828125 1.375 9.125 C1.11460938 8.05507812 0.85421875 6.98515625 0.5859375 5.8828125 C0 3 0 3 0 0 Z " fill="#434A54" transform="translate(24,100)"/>
<path d="M0 0 C1.32 0.33 2.64 0.66 4 1 C3.51015625 1.556875 3.0203125 2.11375 2.515625 2.6875 C0.73490937 5.40446817 0.65217052 6.79119317 0.75 10 C0.76546875 10.845625 0.7809375 11.69125 0.796875 12.5625 C0.98487981 14.81855769 1.37669908 16.82850004 2 19 C1.01 18.67 0.02 18.34 -1 18 C-1.22181406 15.56304285 -1.42791119 13.126474 -1.625 10.6875 C-1.68945312 9.99720703 -1.75390625 9.30691406 -1.8203125 8.59570312 C-2.11802847 4.7440028 -2.20763723 3.31145584 0 0 Z " fill="#C1AFA6" transform="translate(68,42)"/>
<path d="M0 0 C0.66 0 1.32 0 2 0 C1.67 4.29 1.34 8.58 1 13 C0.34 13 -0.32 13 -1 13 C-1.66 13.66 -2.32 14.32 -3 15 C-2.5547115 9.72684667 -1.91626837 4.98229776 0 0 Z " fill="#191A1B" transform="translate(93,81)"/>
<path d="M0 0 C0.66 0.33 1.32 0.66 2 1 C0.71034824 2.37562854 -0.62689293 3.70766393 -2 5 C-2.66 5 -3.32 5 -4 5 C-4 5.99 -4 6.98 -4 8 C-4.66 8 -5.32 8 -6 8 C-6.66 9.32 -7.32 10.64 -8 12 C-8.99 11.67 -9.98 11.34 -11 11 C-9.61122646 7.64379729 -8.08322035 5.92701272 -5 4 C-4.34 4 -3.68 4 -3 4 C-3 3.34 -3 2.68 -3 2 C-2.01 1.34 -1.02 0.68 0 0 Z " fill="#1F2021" transform="translate(36,27)"/>
<path d="M0 0 C0.33 0 0.66 0 1 0 C1.33 2.64 1.66 5.28 2 8 C0.02 8 -1.96 8 -4 8 C-5.24546405 5.50907189 -4.7767578 4.58919267 -4 2 C-2.68 2 -1.36 2 0 2 C0 1.34 0 0.68 0 0 Z " fill="#F85D16" transform="translate(14,112)"/>
<path d="M0 0 C-3.45680903 2.76544722 -7.14341602 4.84921278 -11 7 C-10.4360709 3.72921124 -9.54319569 2.13628438 -7 0 C-4.3333581 -1.33332095 -2.83319697 -0.67102033 0 0 Z " fill="#D87F49" transform="translate(30,8)"/>
<path d="M0 0 C0 0.66 0 1.32 0 2 C-3.87684087 3.19287411 -6.91621923 4 -11 4 C-11 4.99 -11 5.98 -11 7 C-12.65 7 -14.3 7 -16 7 C-11.7678033 1.88609566 -6.50230003 0 0 0 Z " fill="#CAAFA1" transform="translate(80,25)"/>
<path d="M0 0 C2 0 2 0 3.625 1.0625 C5.68369484 3.96338818 5.19557733 6.54480057 5 10 C0.125 5.375 0.125 5.375 -1 2 C-0.67 1.34 -0.34 0.68 0 0 Z " fill="#504B4D" transform="translate(105,27)"/>
<path d="M0 0 C2.125 0.9375 2.125 0.9375 4 2 C2.37660195 3.70884005 0.70680947 5.37446717 -1 7 C-1.66 7 -2.32 7 -3 7 C-2.625 4.0625 -2.625 4.0625 -2 1 C-1.34 0.67 -0.68 0.34 0 0 Z " fill="#121314" transform="translate(79,124)"/>
<path d="M0 0 C3.00617269 3.00617269 2.59585316 5.82381598 3 10 C2.01 10.33 1.02 10.66 0 11 C-0.19491452 9.54263913 -0.38069358 8.08405407 -0.5625 6.625 C-0.66691406 5.81289063 -0.77132812 5.00078125 -0.87890625 4.1640625 C-1 2 -1 2 0 0 Z " fill="#E79E6B" transform="translate(110,25)"/>
<path d="M0 0 C0 0.33 0 0.66 0 1 C-1.44632813 1.19916016 -1.44632813 1.19916016 -2.921875 1.40234375 C-4.81679687 1.66724609 -4.81679687 1.66724609 -6.75 1.9375 C-8.00296875 2.11152344 -9.2559375 2.28554688 -10.546875 2.46484375 C-13.09982593 2.86049338 -15.5186291 3.30446422 -18 4 C-18 3.01 -18 2.02 -18 1 C-12.03325384 -0.32594359 -6.07416385 -0.0884587 0 0 Z " fill="#AC6E48" transform="translate(86,24)"/>
<path d="M0 0 C0.33 0.99 0.66 1.98 1 3 C-0.43359375 5.04296875 -0.43359375 5.04296875 -2.4375 7.1875 C-3.09621094 7.90292969 -3.75492187 8.61835937 -4.43359375 9.35546875 C-4.95050781 9.89816406 -5.46742187 10.44085938 -6 11 C-6.66 10.67 -7.32 10.34 -8 10 C-5.47280783 6.54173703 -2.75550472 3.27681643 0 0 Z " fill="#2B2F37" transform="translate(106,69)"/>
<path d="M0 0 C-0.875 4.75 -0.875 4.75 -2 7 C-3.32 6.67 -4.64 6.34 -6 6 C-5.34 6 -4.68 6 -4 6 C-4.33 5.01 -4.66 4.02 -5 3 C-2.25 0 -2.25 0 0 0 Z " fill="#FC7725" transform="translate(113,111)"/>
<path d="M0 0 C1.32 0 2.64 0 4 0 C4 0.99 4 1.98 4 3 C3.01 3.495 3.01 3.495 2 4 C1.27306096 5.97888961 0.60183749 7.97954558 0 10 C-0.33 10 -0.66 10 -1 10 C-1.125 2.25 -1.125 2.25 0 0 Z " fill="#FD7222" transform="translate(8,107)"/>
<path d="M0 0 C1.32 0.66 2.64 1.32 4 2 C3.071875 2.763125 2.14375 3.52625 1.1875 4.3125 C-0.98276101 6.11848552 -3.05568065 7.9476629 -5 10 C-4.67 8.02 -4.34 6.04 -4 4 C-3.01 4 -2.02 4 -1 4 C-0.67 2.68 -0.34 1.36 0 0 Z " fill="#D97335" transform="translate(64,27)"/>
<path d="M0 0 C2.5625 2.25 2.5625 2.25 5 5 C4.8125 7.3125 4.8125 7.3125 4 9 C0.06153846 5.67692308 0.06153846 5.67692308 -0.25 2.25 C-0.1675 1.5075 -0.085 0.765 0 0 Z " fill="#2A2A2A" transform="translate(33,113)"/>
<path d="M0 0 C0.66 0 1.32 0 2 0 C2 0.99 2 1.98 2 3 C3.32 3 4.64 3 6 3 C6 3.66 6 4.32 6 5 C3.36 5 0.72 5 -2 5 C-1.34 3.35 -0.68 1.7 0 0 Z " fill="#EF2F2B" transform="translate(38,62)"/>
<path d="M0 0 C0.99 0.33 1.98 0.66 3 1 C4.1875 4.0625 4.1875 4.0625 5 7 C3.68 7 2.36 7 1 7 C-0.0625 4.625 -0.0625 4.625 -1 2 C-0.67 1.34 -0.34 0.68 0 0 Z " fill="#4E5053" transform="translate(108,37)"/>
<path d="M0 0 C0 0.99 0 1.98 0 3 C-4.95 2.67 -9.9 2.34 -15 2 C-15 1.67 -15 1.34 -15 1 C-13.06263299 0.83179449 -11.12510094 0.66548905 -9.1875 0.5 C-7.56908203 0.36078125 -7.56908203 0.36078125 -5.91796875 0.21875 C-3 0 -3 0 0 0 Z " fill="#1C1E22" transform="translate(91,22)"/>
<path d="M0 0 C0.66 0.33 1.32 0.66 2 1 C1.375 3.375 1.375 3.375 0 6 C-3.125 7.3125 -3.125 7.3125 -6 8 C-4.55746343 4.63408134 -2.66735273 2.48952921 0 0 Z " fill="#E59C6D" transform="translate(19,10)"/>
<path d="M0 0 C2.52588702 2.36292656 3.88820837 3.66462511 5 7 C6.49985609 8.66710346 6.49985609 8.66710346 8 10 C4.9054129 9.6684371 3.97195314 8.97117406 1.75 6.6875 C0 4 0 4 0 0 Z " fill="#252A30" transform="translate(32,120)"/>
<path d="M0 0 C0.598125 0.763125 1.19625 1.52625 1.8125 2.3125 C3.46959332 4.3483575 5.10297674 6.1978279 7 8 C6.67 8.99 6.34 9.98 6 11 C3.34730103 8.52414762 1.31989897 6.40973899 0 3 C0 2.01 0 1.02 0 0 Z " fill="#080A0E" transform="translate(31,115)"/>
<path d="M0 0 C0.99 0 1.98 0 3 0 C3 0.66 3 1.32 3 2 C3.66 2.33 4.32 2.66 5 3 C3.68 4.32 2.36 5.64 1 7 C0.67 4.69 0.34 2.38 0 0 Z " fill="#F25E18" transform="translate(6,95)"/>
<path d="M0 0 C0.99 0 1.98 0 3 0 C6.125 6.625 6.125 6.625 5 10 C4.34 8.02 3.68 6.04 3 4 C2.01 4 1.02 4 0 4 C0 2.68 0 1.36 0 0 Z " fill="#212628" transform="translate(18,118)"/>
<path d="M0 0 C0.75 1.625 0.75 1.625 1 4 C-0.9375 7.25 -0.9375 7.25 -3 10 C-3.75 8.375 -3.75 8.375 -4 6 C-2.0625 2.75 -2.0625 2.75 0 0 Z " fill="#2A2B2C" transform="translate(86,112)"/>
<path d="M0 0 C2.76223278 2.76223278 2.57856291 5.20706617 3 9 C2.01 9 1.02 9 0 9 C0 6 0 3 0 0 Z " fill="#D2541B" transform="translate(10,94)"/>
<path d="M0 0 C-1.07401108 2.91517292 -1.77810176 4.77810176 -4 7 C-4.33 5.35 -4.66 3.7 -5 2 C-2 0 -2 0 0 0 Z " fill="#DD8654" transform="translate(16,17)"/>
<path d="M0 0 C0.99 0 1.98 0 3 0 C3.33 0.99 3.66 1.98 4 3 C3.01 4.485 3.01 4.485 2 6 C0 5 0 5 -0.6875 3 C-0.790625 2.34 -0.89375 1.68 -1 1 C-0.67 0.67 -0.34 0.34 0 0 Z " fill="#3A3E45" transform="translate(107,67)"/>
<path d="M0 0 C0.33 0.66 0.66 1.32 1 2 C-0.65 4.31 -2.3 6.62 -4 9 C-4.33 8.34 -4.66 7.68 -5 7 C-3.56742037 4.27127689 -2.18277634 2.18277634 0 0 Z " fill="#414957" transform="translate(28,25)"/>
<path d="M0 0 C0.33 0 0.66 0 1 0 C1 2.31 1 4.62 1 7 C-0.98 7 -2.96 7 -5 7 C-5.33 6.34 -5.66 5.68 -6 5 C-5.195625 4.731875 -4.39125 4.46375 -3.5625 4.1875 C-2.716875 3.795625 -1.87125 3.40375 -1 3 C-0.67 2.01 -0.34 1.02 0 0 Z " fill="#4D5661" transform="translate(113,141)"/>
<path d="M0 0 C0.33 0 0.66 0 1 0 C1.07654536 4.51617599 1.10228696 8.59085217 0 13 C-1.44977894 10.65887549 -2.04314411 9.4203071 -1.7578125 6.640625 C-1.54898438 5.85171875 -1.34015625 5.0628125 -1.125 4.25 C-0.92132813 3.45078125 -0.71765625 2.6515625 -0.5078125 1.828125 C-0.34023437 1.22484375 -0.17265625 0.6215625 0 0 Z " fill="#8D8D8E" transform="translate(114,49)"/>
<path d="M0 0 C0 0.99 0 1.98 0 3 C-1.98 3.99 -1.98 3.99 -4 5 C-4.33 3.68 -4.66 2.36 -5 1 C-3 0 -3 0 0 0 Z " fill="#463428" transform="translate(79,41)"/>
</svg>
